/* XPM */
static char * 1_xpm[] = {
"10 16 8 1",
" 	c None",
".	c #000000",
"+	c #BBBBBB",
"@	c #DC1A1A",
"#	c #3480D5",
"$	c #FF9B00",
"%	c #FFAAFE",
"&	c #1DC92D",
"..........",
"..........",
"..........",
"..........",
"++++++++++",
"@@@@@@@@@@",
"##########",
"$$$$$$$$$$",
"%%%%%%%%%%",
"&&&&&&&&&&",
"..........",
"..........",
"..........",
"..........",
"..........",
".........."};
