/* XPM */
static char * 10_xpm[] = {
"10 16 7 1",
" 	c None",
".	c #000000",
"+	c #C5B82E",
"@	c #3480D5",
"#	c #FFFFFF",
"$	c #1DC92D",
"%	c #BBBBBB",
".+........",
"..........",
"..........",
".+........",
".+....@...",
".+...@#@..",
".+..@#$#@.",
".+.@#$%$#@",
".+..@#$#@.",
".+...@#@..",
".+....@...",
".+........",
".+........",
".+........",
".+........",
".+++++++++"};
