/* XPM */
static char * 11_xpm[] = {
"10 16 4 1",
" 	c None",
".	c #000000",
"+	c #BBBBBB",
"@	c #FFFFFF",
"..........",
"..........",
"..........",
".++++++++.",
".+......+.",
".+.++++.+.",
".+.+@@+.+.",
".+.+@@+.+.",
".+.+@@+.+.",
".+.++++.+.",
".+......+.",
".++++++++.",
"..........",
"..........",
"..........",
".........."};
