/* XPM */
static char * 12_xpm[] = {
"10 16 8 1",
" 	c None",
".	c #000000",
"+	c #C5B82E",
"@	c #FFAAFE",
"#	c #1DC92D",
"$	c #3480D5",
"%	c #DC1A1A",
"&	c #FF9B00",
"..........",
"..........",
"++++++++++",
"....+...+@",
".#..+...+.",
".+..+.+.+.",
".+..+#+.+.",
".+..+.+.+.",
".+.@+.+$+.",
".+..+.+.+.",
".+..+%+.+.",
".+..+.+.+.",
".+&...+...",
".+....+..@",
".+++++++++",
".........."};
