/* XPM */
static char * 13_xpm[] = {
"10 16 9 1",
" 	c None",
".	c #000000",
"+	c #FF9B00",
"@	c #FFFFFF",
"#	c #3480D5",
"$	c #FFF600",
"%	c #FFAAFE",
"&	c #DC1A1A",
"*	c #1DC92D",
"..........",
"..........",
"..........",
"..........",
".++.@@.++.",
".@@.++.@@.",
".##.$$.##.",
".%%.&&.%%.",
".**.**.**.",
".&&.%%.&&.",
".$$.##.$$.",
".++.@@.++.",
"..........",
"..........",
"..........",
".........."};
