/* XPM */
static char * 14_xpm[] = {
"10 16 8 1",
" 	c None",
".	c #000000",
"+	c #FFAAFE",
"@	c #BBBBBB",
"#	c #C5B82E",
"$	c #3480D5",
"%	c #1DC92D",
"&	c #DC1A1A",
"..........",
"..........",
"+@@@@@@@@+",
"#........#",
"$$$$$$$$$$",
"..........",
"$@@@@@@@@$",
"#........#",
"%%%%%%%%%%",
"..........",
"%@@@@@@@@%",
"#........#",
"&&&&&&&&&&",
"..........",
"++++++++++",
".........."};
