/* XPM */
static char * 15_xpm[] = {
"10 16 6 1",
" 	c None",
".	c #000000",
"+	c #FFFFFF",
"@	c #BBBBBB",
"#	c #DC1A1A",
"$	c #FF9B00",
"..........",
"..........",
"..........",
"+@@++++@@+",
"+@#@++@$@+",
"+@##@@$$@+",
"+@##@@$$@+",
"+@##@@$$@+",
"+@##@@$$@+",
"+@##@@$$@+",
"+@##@@$$@+",
"+@##@@$$@+",
"++@#@@$@++",
"+++@@@@+++",
"++++@@++++",
".........."};
