/* XPM */
static char * 16_xpm[] = {
"10 16 9 1",
" 	c None",
".	c #000000",
"+	c #C5B82E",
"@	c #FFFFFF",
"#	c #FF9B00",
"$	c #1DC92D",
"%	c #3480D5",
"&	c #DC1A1A",
"*	c #FFAAFE",
"..........",
"..........",
"....++....",
"..@@..@@..",
"@@..++..@@",
"..##..##..",
"##..++..##",
"..$$..$$..",
"$$..++..$$",
"..%%..%%..",
"%%..++..%%",
"..&&..&&..",
"&&..++..&&",
"..**..**..",
"**......**",
".........."};
