/* XPM */
static char * 17_xpm[] = {
"10 16 7 1",
" 	c None",
".	c #000000",
"+	c #BBBBBB",
"@	c #FFF600",
"#	c #FF9B00",
"$	c #FFFFFF",
"%	c #C5B82E",
"..........",
"..........",
".....+....",
"...@@+##..",
"..@@$$$##.",
".@@$$$$$##",
".@@$$$$$##",
".@@$$$$$##",
".@.$.+.$.#",
".....+....",
".....+....",
"...%.%....",
"...%%%....",
"....%.....",
"..........",
".........."};
