/* XPM */
static char * 18_xpm[] = {
"10 16 6 1",
" 	c None",
".	c #000000",
"+	c #3480D5",
"@	c #C5B82E",
"#	c #FF9B00",
"$	c #1DC92D",
"..........",
"..........",
"..........",
"+...+.@.#.",
"+...+...#.",
"+.+.+.$.#.",
"+.+.+.$.#.",
"+.+.+.$.#.",
"+.+.+.$.#.",
"+.+.+.$.#.",
"+.+.+.$.#.",
"+.@.+.$.#.",
"+@+@+.$.@@",
"..........",
"..........",
".........."};
