/* XPM */
static char * 19_xpm[] = {
"10 16 6 1",
" 	c None",
".	c #000000",
"+	c #C5B82E",
"@	c #FFFFFF",
"#	c #1DC92D",
"$	c #DC1A1A",
"..........",
"..........",
"..++++++..",
"..@#+$#@..",
"..@#+$#@..",
"..@#+$#@..",
"..@#++#@..",
"..@#$+#@..",
"..@#$+#@..",
"..@#$+#@..",
"..++++++..",
"..........",
"..........",
"..........",
"..........",
".........."};
