/* XPM */
static char * 2_xpm[] = {
"10 16 8 1",
" 	c None",
".	c #000000",
"+	c #FFAAFE",
"@	c #3480D5",
"#	c #1DC92D",
"$	c #FF9B00",
"%	c #DC1A1A",
"&	c #BBBBBB",
"..........",
"..........",
"+.........",
"+@........",
"+@#.......",
"+@#$......",
"+@#$%.....",
"+@#$%+....",
"+@#$%+@...",
"+@#$%+@#..",
"+@#$%+@#$.",
"+@#$%+@#$%",
"&&&&&&&&&+",
"..........",
"..........",
".........."};
