/* XPM */
static char * 20_xpm[] = {
"10 16 11 1",
" 	c None",
".	c #000000",
"+	c #1DC92D",
"@	c #C5B82E",
"#	c #3480D5",
"$	c #DC1A1A",
"%	c #FFAAFE",
"&	c #FFF600",
"*	c #FF9B00",
"=	c #FFFFFF",
"-	c #BBBBBB",
"..........",
"..........",
"..........",
"+@##@@$$@+",
"%@&&@@**@%",
"..........",
".@..==..@.",
".@%%@@%%@.",
".@..@@..@.",
"..........",
".@--@@--@.",
"....@@....",
"..........",
"..........",
"..........",
".........."};
