/* XPM */
static char * 21_xpm[] = {
"10 16 8 1",
" 	c None",
".	c #000000",
"+	c #FFFFFF",
"@	c #1DC92D",
"#	c #C5B82E",
"$	c #FF9B00",
"%	c #FFF600",
"&	c #DC1A1A",
"..........",
"..........",
"..........",
"++++++++++",
"++++++++++",
"..........",
"@#.#$$#.#@",
"@#.#%%#.#@",
"@#.#%%#.#@",
"@#.#$$#.#@",
"..........",
"&&&&&&&&&&",
"&&&&&&&&&&",
"..........",
"..........",
".........."};
