/* XPM */
static char * 22_xpm[] = {
"10 16 10 1",
" 	c None",
".	c #000000",
"+	c #3480D5",
"@	c #BBBBBB",
"#	c #FFF600",
"$	c #DC1A1A",
"%	c #FFFFFF",
"&	c #FF9B00",
"*	c #1DC92D",
"=	c #FFAAFE",
"..........",
"..........",
"++++++++++",
"..........",
"@@@..@@@..",
"@#@..@$@..",
"@@@..@@@..",
"..........",
"..@@@..@@@",
"..@%@..@&@",
"..@@@..@@@",
"..........",
"**********",
"==========",
"..........",
".........."};
