/* XPM */
static char * 23_xpm[] = {
"10 16 8 1",
" 	c None",
".	c #000000",
"+	c #FFFFFF",
"@	c #FF9B00",
"#	c #C5B82E",
"$	c #1DC92D",
"%	c #3480D5",
"&	c #BBBBBB",
"..........",
"..........",
".+++..@..@",
"+++....##.",
".......##.",
"......@..@",
"..........",
"..........",
"....$$....",
"...%%$$...",
"..%%%%$$..",
".%%%%%%$$.",
"%%%%&&%%$$",
"%%%%&&%%%$",
"..........",
".........."};
