/* XPM */
static char * 24_xpm[] = {
"10 16 8 1",
" 	c None",
".	c #000000",
"+	c #FFF600",
"@	c #FFFFFF",
"#	c #BBBBBB",
"$	c #C5B82E",
"%	c #3480D5",
"&	c #DC1A1A",
"..........",
"..++..++..",
".++++++++.",
".+@@++@@+.",
".+@@++@@+.",
".+@#++#@+.",
".+@@++@@+.",
".++++++++.",
".++++++++.",
"..+$++$+..",
".##++++##.",
"##%@##@&##",
"#%%%##&#&#",
"##%####&##",
".##++++##.",
"....++...."};
