/* XPM */
static char * 25_xpm[] = {
"10 16 11 1",
" 	c None",
".	c #000000",
"+	c #FFF600",
"@	c #DC1A1A",
"#	c #1DC92D",
"$	c #C5B82E",
"%	c #FFAAFE",
"&	c #3480D5",
"*	c #BBBBBB",
"=	c #FFFFFF",
"-	c #FF9B00",
"..........",
"..........",
"..........",
"++++++++++",
"@@@@@@@@@@",
"##########",
"$$$%%%%$$$",
"$&$****$&$",
"$=$....$-$",
"$........$",
"$........$",
"$........$",
"$==$##$==$",
"$**$$$$**$",
"..........",
".........."};
