/* XPM */
static char * 26_xpm[] = {
"10 16 6 1",
" 	c None",
".	c #000000",
"+	c #FFF600",
"@	c #3480D5",
"#	c #BBBBBB",
"$	c #DC1A1A",
"..........",
"..........",
"++++++++++",
"++++++++++",
"++++++++++",
"++++++++++",
"@@@@@@@@@@",
"@@@####@@@",
"@@#@@@@#@@",
"@#@@@@@@#@",
"@@@@@@@@@@",
"$$$$$$$$$$",
"$$$$$$$$$$",
"$$$$$$$$$$",
"$$$$$$$$$$",
".........."};
