/* XPM */
static char * 27_xpm[] = {
"10 16 6 1",
" 	c None",
".	c #000000",
"+	c #1DC92D",
"@	c #C5B82E",
"#	c #FFFFFF",
"$	c #FFAAFE",
"..........",
"..........",
"..........",
"++++++++++",
"+@@@##@@@+",
"+@......@+",
"+@......@+",
"+@$....$@+",
".+@$..$@+.",
"..+@$$@+..",
"...+$$+...",
"....++....",
"..........",
"..........",
"..........",
".........."};
