/* XPM */
static char * 28_xpm[] = {
"10 16 11 1",
" 	c None",
".	c #000000",
"+	c #FFF600",
"@	c #C5B82E",
"#	c #3480D5",
"$	c #DC1A1A",
"%	c #FFFFFF",
"&	c #FFAAFE",
"*	c #BBBBBB",
"=	c #FF9B00",
"-	c #1DC92D",
"..........",
"..........",
"..........",
"+++@..@+++",
"###@..@###",
"$$$@..@$$$",
"@@@@..@@@@",
"%%%@..@%%%",
"&&&@..@&&&",
"***@..@***",
"===@..@===",
"---@..@---",
"###@..@###",
"..........",
"..........",
".........."};
