/* XPM */
static char * 29_xpm[] = {
"10 16 10 1",
" 	c None",
".	c #000000",
"+	c #FFFFFF",
"@	c #3480D5",
"#	c #1DC92D",
"$	c #FFF600",
"%	c #FF9B00",
"&	c #BBBBBB",
"*	c #DC1A1A",
"=	c #FFAAFE",
"..........",
"..........",
"+.@.#.$.%.",
"&.&.&.&.&.",
".*.=.+.@.#",
".&.&.&.&.&",
"$.%.*.=.+.",
"&.&.&.&.&.",
".@.#.$.%.*",
".&.&.&.&.&",
"=.+.@.#.$.",
"&.&.&.&.&.",
".%.*.=.+..",
".&.&.&.&..",
"..........",
".........."};
