/* XPM */
static char * 3_xpm[] = {
"10 16 8 1",
" 	c None",
".	c #000000",
"+	c #1DC92D",
"@	c #FFFFFF",
"#	c #FF9B00",
"$	c #DC1A1A",
"%	c #FFAAFE",
"&	c #3480D5",
"..........",
"..........",
"++++++++++",
"..........",
"@@@#######",
"..........",
"$$$$$$$$$$",
"..........",
"#######@@@",
"..........",
"%%%%%%%%%%",
"..........",
"@@@#######",
"..........",
"&&&&&&&&&&",
".........."};
