/* XPM */
static char * 4_xpm[] = {
"10 16 8 1",
" 	c None",
".	c #000000",
"+	c #BBBBBB",
"@	c #FF9B00",
"#	c #1DC92D",
"$	c #3480D5",
"%	c #FFAAFE",
"&	c #DC1A1A",
"..........",
"..........",
".+@#..#@+.",
".$#@..@#$.",
".#%&..&%#.",
".@&%..%&@.",
".&$#..#$&.",
".+@+..+@+.",
".%+$..$+%.",
".+#+..+#+.",
".$#@..@#$.",
".#%&..&%#.",
".@&%..%&@.",
".&$#..#$&.",
"..........",
".........."};
