/* XPM */
static char * 5_xpm[] = {
"10 16 5 1",
" 	c None",
".	c #000000",
"+	c #FF9B00",
"@	c #BBBBBB",
"#	c #DC1A1A",
"..........",
"..+....+..",
"...+..+...",
"...+..+...",
"...@@@@...",
"..@@@@@@..",
".@@#@@#@@.",
".@@#@@#@@.",
".@@@@@@@@.",
".@.@@@@.@.",
".@.@@@@.@.",
".@..@@..@.",
"...@..@...",
"..........",
"..........",
".........."};
