/* XPM */
static char * 6_xpm[] = {
"10 16 7 1",
" 	c None",
".	c #000000",
"+	c #3480D5",
"@	c #DC1A1A",
"#	c #FFF600",
"$	c #C5B82E",
"%	c #FFAAFE",
"..........",
"..........",
"..........",
"+.@.##.@.+",
"+.@.##.@.+",
"+.@.##.@.+",
"+.$.$$.$.+",
"+.@.##.@.+",
"+.@.##.@.+",
"+.@.##.@.+",
"+.@.##.@.+",
"%.$.$$.$.%",
"+.@.##.@.+",
"..........",
"..........",
".........."};
