/* XPM */
static char * 7_xpm[] = {
"10 16 7 1",
" 	c None",
".	c #000000",
"+	c #FF9B00",
"@	c #3480D5",
"#	c #1DC92D",
"$	c #FFAAFE",
"%	c #DC1A1A",
"..........",
"..........",
"..........",
"....+@....",
"...+@#+...",
"..#@$+#%..",
"..@#+$%#..",
"..$+#%$+..",
"..+$%#+$..",
"..#%$+#@..",
"..%#+$@#..",
"..$+#@$+..",
"...$@#+...",
"....$+....",
"..........",
".........."};
