/* XPM */
static char * 8_xpm[] = {
"10 16 11 1",
" 	c None",
".	c #000000",
"+	c #C5B82E",
"@	c #FFFFFF",
"#	c #FFAAFE",
"$	c #DC1A1A",
"%	c #FF9B00",
"&	c #BBBBBB",
"*	c #FFF600",
"=	c #1DC92D",
"-	c #3480D5",
"..........",
"..........",
"..........",
".+.+@.+.+.",
".....#....",
"....$.....",
"...+.%+...",
".+..&&..+.",
"....&&....",
"...+.*+...",
"....=.....",
".....-....",
".+.+@.+.+.",
"..........",
"..........",
".........."};
